<svg id="affiliate-marketing-icon_1_" data-name="affiliate-marketing-icon (1)" xmlns="http://www.w3.org/2000/svg" width="18.115" height="20" viewBox="0 0 18.115 20">
  <path id="Path_1" data-name="Path 1" d="M7.336,4.679c-1.647,0-2.152.016-3.815.016a2.748,2.748,0,0,0-.538.049,2.146,2.146,0,0,0-.489.147,2.46,2.46,0,0,0-.456.245,2.67,2.67,0,0,0-.408.342,2.67,2.67,0,0,0-.342.408,2.46,2.46,0,0,0-.245.456A2.788,2.788,0,0,0,.9,6.831a3,3,0,0,0-.049.538V12.8a2.748,2.748,0,0,0,.049.538,2.146,2.146,0,0,0,.147.489,2.46,2.46,0,0,0,.245.456,2.67,2.67,0,0,0,.342.408h0a2.785,2.785,0,0,0,.424.342,2.46,2.46,0,0,0,.456.245A2.788,2.788,0,0,0,3,15.423a3,3,0,0,0,.538.049H5.592a.329.329,0,0,1,.179.049.9.9,0,0,1,.147.114h0c.163.212.326.424.505.62a6.282,6.282,0,0,0,.571.571,6.538,6.538,0,0,0,.62.522c.212.163.44.326.652.473a6.9,6.9,0,0,0,.685.408c.228.13.473.245.717.359a.073.073,0,0,0,.082,0,.088.088,0,0,0,.033-.13c-.049-.082-.082-.147-.13-.228-.033-.082-.082-.147-.114-.228h0c-.065-.163-.13-.31-.2-.473a4.608,4.608,0,0,1-.179-.505c-.049-.163-.114-.326-.163-.489s-.1-.326-.147-.505a.451.451,0,0,1-.016-.147.469.469,0,0,1,.114-.293h0a.408.408,0,0,1,.293-.13h2.4a2.748,2.748,0,0,0,.538-.049,2.788,2.788,0,0,0,.489-.147h0a2.328,2.328,0,0,0,.44-.245,2.155,2.155,0,0,0,.424-.359h0a2.67,2.67,0,0,0,.342-.408,2.46,2.46,0,0,0,.245-.456,2.788,2.788,0,0,0,.147-.489,3,3,0,0,0,.049-.538V11.657a.439.439,0,0,1,.848-.163v1.272a3.3,3.3,0,0,1-.065.7,5.172,5.172,0,0,1-.2.668,3.1,3.1,0,0,1-.326.6,2.853,2.853,0,0,1-.456.538,3.476,3.476,0,0,1-.538.456,5.275,5.275,0,0,1-.587.326h0a4.953,4.953,0,0,1-.652.2,3.3,3.3,0,0,1-.7.065H9.912a.093.093,0,0,0-.065.114h0c.033.1.065.212.1.326h0c.049.147.114.31.179.456s.114.293.179.424v.016c.065.147.13.277.212.424.082.13.179.277.277.408s.212.261.342.408h0a3.259,3.259,0,0,0,.424.391.506.506,0,0,1,.147.293.488.488,0,0,1-.1.293.3.3,0,0,1-.2.114.537.537,0,0,1-.228,0c-.31-.082-.62-.179-.913-.277a7.935,7.935,0,0,1-.864-.342c-.277-.114-.554-.261-.815-.391-.261-.147-.522-.293-.766-.456h0c-.245-.163-.489-.326-.717-.505s-.456-.375-.668-.571h0a5.447,5.447,0,0,1-.522-.538c-.163-.179-.342-.375-.489-.571a.09.09,0,0,0-.082-.049H3.522a3.3,3.3,0,0,1-.7-.065,4.309,4.309,0,0,1-.652-.2h0a3.1,3.1,0,0,1-.6-.326,3.519,3.519,0,0,1-.538-.44,4.452,4.452,0,0,1-.456-.538,3.1,3.1,0,0,1-.326-.6,4.309,4.309,0,0,1-.2-.652A4.145,4.145,0,0,1,0,12.8V7.336a3.3,3.3,0,0,1,.065-.7,4.309,4.309,0,0,1,.2-.652,3.1,3.1,0,0,1,.326-.6,2.853,2.853,0,0,1,.456-.538,4.452,4.452,0,0,1,.538-.456,5.276,5.276,0,0,1,.587-.326h0a4.514,4.514,0,0,1,.668-.2,3.3,3.3,0,0,1,.7-.065H7.532a.456.456,0,0,1-.2.88Zm2.136.848a1.211,1.211,0,0,0-.082.6l.049.293c.033.1.065.212.1.31l.147.293a1.349,1.349,0,0,0,.179.245,1.126,1.126,0,0,0,.554.375c.375.114,1.027-.212,1.369-.326h0a.265.265,0,0,1,.2.016.32.32,0,0,1,.147.147c0,.016,0,.016.016.033.016.065.049.13.065.2A12.364,12.364,0,0,0,12.7,9.048c.016.033.033.082.049.114v.016a3.45,3.45,0,0,0,.179.342,1.2,1.2,0,0,0,.179.261.2.2,0,0,0,.13.065.382.382,0,0,0,.212-.114.984.984,0,0,1,.13-.13h0l.147-.147a5.551,5.551,0,0,0,.538-.538L14.216,8.9c-.554-.179-.522-.473-.489-.734h0a.459.459,0,0,0,0-.212h0c0-.016-.016,0-.049-.033-.016-.016-.033-.016-.049-.033a.732.732,0,0,1-.179-.212.954.954,0,0,1-.065-.6,1.762,1.762,0,0,1,.082-.342h0a.263.263,0,0,1,.065-.114.328.328,0,0,1,.13-.065h0a3.516,3.516,0,0,1,2.282.147c.082.033.179.065.261.1a5.734,5.734,0,0,1-.668-.831,9.34,9.34,0,0,1-.88-1.581,10.268,10.268,0,0,1-.6-1.663,7.35,7.35,0,0,1-.212-1.076A7.831,7.831,0,0,1,12.765,3.1c-.456.424-3.114,2.022-3.293,2.429Zm6.815-1.255a1.646,1.646,0,0,1-.163.75,1.181,1.181,0,0,1-.277.408,6.567,6.567,0,0,0,.7.9,3.794,3.794,0,0,0,.75.636h.049a.06.06,0,0,0,.049-.016.057.057,0,0,0,.033-.016.372.372,0,0,0,.1-.2.949.949,0,0,0,.049-.31A4.418,4.418,0,0,0,17.4,5.136a11.465,11.465,0,0,0-.636-1.7,11.875,11.875,0,0,0-.88-1.565A5.6,5.6,0,0,0,15,.815,1.446,1.446,0,0,0,14.706.6a.4.4,0,0,0-.212-.065h-.016A.225.225,0,0,0,14.428.6h0A2.4,2.4,0,0,0,14.4,1.712,8.249,8.249,0,0,0,14.8,3.277a.4.4,0,0,1,.147-.016,1.518,1.518,0,0,1,.636.082,1.04,1.04,0,0,1,.587.473,1.427,1.427,0,0,1,.114.456Zm.994,3.244h-.065a.1.1,0,0,1-.065-.016l-.082-.016c-.2-.016-.408-.065-.62-.1h-.016a3.445,3.445,0,0,1-.62-.2,2.825,2.825,0,0,0-1.875-.179.359.359,0,0,0-.016.13.547.547,0,0,0,0,.163c0,.033.016.065.016.1a.057.057,0,0,0,.016.033l.016.016a.564.564,0,0,1,.245.277.819.819,0,0,1,.033.342c-.016.114-.016.228.114.277h0a.594.594,0,0,1,.424.326c.016.016.016.049.033.065h0V8.8h0c-.033.31-.489.75-.75.994l-.13.13-.016.016-.1.1v.065a.869.869,0,0,1-.6.293.713.713,0,0,1-.505-.245,2.03,2.03,0,0,1-.261-.359c-.065-.13-.13-.261-.2-.408-.016-.033-.033-.082-.049-.114a10.51,10.51,0,0,1-.489-1.337,2.048,2.048,0,0,1-1.451.245,1.88,1.88,0,0,1-.8-.538h0a2.33,2.33,0,0,1-.228-.326,2.454,2.454,0,0,1-.179-.359,3.415,3.415,0,0,1-.13-.375A1.637,1.637,0,0,1,8.869,6.2a1.8,1.8,0,0,1,.114-.9c.342-.75,2.592-1.728,3.473-2.706A8.772,8.772,0,0,0,13.63.848V.831A5.53,5.53,0,0,1,14,.212l.1-.1a.69.69,0,0,1,.114-.082A.384.384,0,0,0,14.347,0h.147A1.4,1.4,0,0,1,14.9.114a1.658,1.658,0,0,1,.424.293A6.532,6.532,0,0,1,16.3,1.549,11.378,11.378,0,0,1,17.233,3.2a12.373,12.373,0,0,1,.685,1.81,4.854,4.854,0,0,1,.2,1.435h0a2.02,2.02,0,0,1-.1.473,1.066,1.066,0,0,1-.212.375l-.016.016-.016.033a1.216,1.216,0,0,1-.2.114h0A.425.425,0,0,1,17.4,7.5H17.33l-.049.016Zm-6.57,5.543a.391.391,0,0,0,0-.783l-4.19-.065-.8-.049a.4.4,0,0,0-.049.8l.8.049c.016-.016,3.88.033,4.239.049ZM9.456,10.581a.391.391,0,1,0,0-.783H3.8a.391.391,0,0,0,0,.783ZM7.7,8.217a.391.391,0,0,0,0-.783H3.8a.391.391,0,0,0,0,.783Z" transform="translate(0)" fill="#150e0b"/>
</svg>
