<svg xmlns="http://www.w3.org/2000/svg" width="20" height="20" viewBox="0 0 20 20">
  <g id="vuesax_linear_monitor-mobbile" data-name="vuesax/linear/monitor-mobbile" transform="translate(-556 -188)">
    <g id="monitor-mobbile" transform="translate(556 188)">
      <path id="Vector" d="M6.667,12.017H3.508C.7,12.017,0,11.317,0,8.508v-5C0,.7.7,0,3.508,0h8.775c2.808,0,3.508.7,3.508,3.508" transform="translate(1.667 2.108)" fill="none" stroke="#150e0b" stroke-linecap="round" stroke-linejoin="round" stroke-width="1.2"/>
      <path id="Vector-2" data-name="Vector" d="M0,3.767V0" transform="translate(8.333 14.125)" fill="none" stroke="#150e0b" stroke-linecap="round" stroke-linejoin="round" stroke-width="1.2"/>
      <path id="Vector-3" data-name="Vector" d="M0,0H6.667" transform="translate(1.667 10.792)" fill="none" stroke="#150e0b" stroke-linecap="round" stroke-linejoin="round" stroke-width="1.2"/>
      <path id="Vector-4" data-name="Vector" d="M0,0H2.717" transform="translate(5.617 17.892)" fill="none" stroke="#150e0b" stroke-linecap="round" stroke-linejoin="round" stroke-width="1.2"/>
      <path id="Vector-5" data-name="Vector" d="M7.892,2.467V7.225c0,1.975-.492,2.467-2.467,2.467H2.467C.492,9.692,0,9.2,0,7.225V2.467C0,.492.492,0,2.467,0H5.425C7.4,0,7.892.492,7.892,2.467Z" transform="translate(10.442 8.2)" fill="none" stroke="#150e0b" stroke-linecap="round" stroke-linejoin="round" stroke-width="1.2"/>
      <path id="Vector-6" data-name="Vector" d="M.495.5H.5" transform="translate(13.876 14.708)" fill="none" stroke="#150e0b" stroke-linecap="round" stroke-linejoin="round" stroke-width="1.2"/>
      <path id="Vector-7" data-name="Vector" d="M0,0H20V20H0Z" fill="none" opacity="0"/>
    </g>
  </g>
</svg>
