<svg xmlns="http://www.w3.org/2000/svg" width="20" height="20" viewBox="0 0 20 20">
  <g id="receipt-minus" transform="translate(-556 -188)">
    <path id="Vector" d="M5,3.333V5.35A2,2,0,0,1,2.85,7.5H0V1.675A1.682,1.682,0,0,1,1.683,0,3.329,3.329,0,0,1,5,3.333Z" transform="translate(569.333 189.667)" fill="none" stroke="#150e0b" stroke-linecap="round" stroke-linejoin="round" stroke-width="1.2"/>
    <path id="Vector-2" data-name="Vector" d="M0,4.167V15.833a.831.831,0,0,0,1.333.667l1.425-1.067a.84.84,0,0,1,1.1.083l1.383,1.392a.84.84,0,0,0,1.183,0l1.4-1.4a.826.826,0,0,1,1.083-.075L10.333,16.5a.835.835,0,0,0,1.333-.667V1.667A1.672,1.672,0,0,1,13.333,0h-10C.833,0,0,1.492,0,3.333Z" transform="translate(557.667 189.667)" fill="none" stroke="#150e0b" stroke-linecap="round" stroke-linejoin="round" stroke-width="1.2"/>
    <path id="Vector-3" data-name="Vector" d="M0,0H4.583" transform="translate(561.208 196.333)" fill="none" stroke="#150e0b" stroke-linecap="round" stroke-linejoin="round" stroke-width="1.2"/>
    <path id="Vector-4" data-name="Vector" d="M0,0H20V20H0Z" transform="translate(556 188)" fill="none" opacity="0"/>
  </g>
</svg>
