<svg xmlns="http://www.w3.org/2000/svg" width="20" height="20" viewBox="0 0 20 20">
  <g id="vuesax_linear_printer" data-name="vuesax/linear/printer" transform="translate(-300 -188)">
    <g id="printer" transform="translate(300 188)">
      <path id="Vector" d="M0,4.167H7.917V2.5c0-1.667-.625-2.5-2.5-2.5H2.5C.625,0,0,.833,0,2.5Z" transform="translate(6.042 1.667)" fill="none" stroke="#8f7264" stroke-linecap="round" stroke-linejoin="round" stroke-width="1.2"/>
      <path id="Vector-2" data-name="Vector" d="M6.667,0V3.333a2.21,2.21,0,0,1-2.5,2.5H2.5A2.21,2.21,0,0,1,0,3.333V0Z" transform="translate(6.667 12.5)" fill="none" stroke="#8f7264" stroke-linecap="round" stroke-linejoin="round" stroke-width="1.2"/>
      <path id="Vector-3" data-name="Vector" d="M15,2.5V6.667a2.21,2.21,0,0,1-2.5,2.5H10.833v-2.5H4.167v2.5H2.5A2.21,2.21,0,0,1,0,6.667V2.5A2.21,2.21,0,0,1,2.5,0h10A2.21,2.21,0,0,1,15,2.5Z" transform="translate(2.5 5.833)" fill="none" stroke="#8f7264" stroke-linecap="round" stroke-linejoin="round" stroke-width="1.2"/>
      <path id="Vector-4" data-name="Vector" d="M8.333,0H0" transform="translate(5.833 12.5)" fill="none" stroke="#8f7264" stroke-linecap="round" stroke-linejoin="round" stroke-width="1.2"/>
      <path id="Vector-5" data-name="Vector" d="M0,0H2.5" transform="translate(5.833 9.167)" fill="none" stroke="#8f7264" stroke-linecap="round" stroke-linejoin="round" stroke-width="1.2"/>
      <path id="Vector-6" data-name="Vector" d="M0,0H20V20H0Z" fill="none" opacity="0"/>
    </g>
  </g>
</svg>
